<svg width="200" height="200" viewBox="0 0 200 200" fill="none" xmlns="http://www.w3.org/2000/svg">
<g clip-path="url(#clip0)">
<path d="M175.742 127.305C180.273 131.875 182.695 137.93 182.695 143.867C182.695 156.719 171.562 167.305 157.266 168.75C157.422 169.844 157.539 170.937 157.539 172.07C157.539 185.898 144.648 197.109 128.789 197.109C116.953 197.109 106.797 190.898 102.383 181.992C101.914 181.094 100.977 180.625 100.039 180.625C99.1016 180.625 98.125 181.094 97.6953 181.992C96.3672 184.687 94.4531 187.187 92.1484 189.297C86.9141 194.102 79.4922 197.109 71.2891 197.109C55.3906 197.109 42.5391 185.898 42.5391 172.07C42.5391 170.937 42.6562 169.844 42.8125 168.75C28.4766 167.305 17.3828 156.719 17.3828 143.867C17.3828 137.93 19.8047 131.875 24.3359 127.305C11.9922 124.453 2.92969 114.727 2.92969 103.125C2.92969 96.4453 5.89844 89.6484 12.0703 84.375C8.63281 81.0546 6.52344 76.6406 6.52344 71.8359C6.52344 61.6406 15.8203 53.3984 27.4219 53.0859C25.5859 50.3125 24.4922 47.1093 24.4922 43.6718C24.4922 33.2812 34.1406 24.8828 46.0547 24.8828C47.1875 24.8828 48.5547 25 49.6875 25.1562C49.6875 24.9609 49.6484 24.7656 49.6484 24.5312C49.8438 12.8906 61.0938 3.12498 74.4531 2.96873C81.4844 2.8906 87.8516 5.31248 92.4609 9.25779C94.6094 11.0937 96.3672 13.2422 97.6562 15.664C98.125 16.5234 99.0625 16.9922 100 16.9922C100.938 16.9922 101.875 16.5625 102.344 15.664C106.406 8.08591 115.273 2.85154 125.547 2.96873C138.906 3.12498 150.156 12.9297 150.352 24.5312C150.352 24.7265 150.312 24.9218 150.312 25.1562C151.445 25 152.852 24.8828 153.945 24.8828C165.859 24.8828 175.508 33.2812 175.508 43.6718C175.508 47.1093 174.414 50.3125 172.578 53.0859C184.18 53.3984 193.477 61.6797 193.477 71.8359C193.477 76.6796 191.367 81.0546 187.93 84.375C194.102 89.6484 197.07 96.4453 197.07 103.125C197.07 114.727 188.008 124.453 175.742 127.305Z" fill="#FF7575"/>
<path d="M175.742 127.305C180.273 131.875 182.695 137.93 182.695 143.867C182.695 156.719 171.563 167.305 157.266 168.75C157.422 169.844 157.539 170.937 157.539 172.07C157.539 185.898 144.648 197.109 128.789 197.109C116.953 197.109 106.797 190.898 102.383 181.992C101.914 181.094 100.977 180.625 100.039 180.625V16.9531C100.977 16.9531 101.914 16.5234 102.383 15.625C106.445 8.04685 115.313 2.81248 125.586 2.92966C138.945 3.08591 150.195 12.8906 150.391 24.4922C150.391 24.6875 150.352 24.8828 150.352 25.1172C151.484 24.9609 152.891 24.8437 153.984 24.8437C165.898 24.8437 175.547 33.2422 175.547 43.6328C175.547 47.0703 174.453 50.2734 172.617 53.0469C184.219 53.3594 193.516 61.6406 193.516 71.7969C193.516 76.6406 191.406 81.0156 187.969 84.3359C194.141 89.6093 197.109 96.4062 197.109 103.086C197.07 114.727 188.008 124.453 175.742 127.305Z" fill="#66F1FF"/>
<path d="M97.6562 15.625C96.3672 13.2031 94.6094 11.0547 92.4609 9.21872C92.3047 9.53122 92.1094 9.80466 91.9531 10.1172C88.9062 15.8203 91.0547 22.9297 96.7969 25.9765C97.8125 26.5234 98.9062 26.914 99.9609 27.1093V16.9531C99.0625 16.9531 98.125 16.4843 97.6562 15.625Z" fill="#DD62C6"/>
<path d="M88.2812 180.586C88.2812 184.023 89.7656 187.109 92.1094 189.258C94.4141 187.148 96.2891 184.687 97.6562 181.953C98.125 181.055 99.0625 180.586 100 180.586V168.867C93.5156 168.867 88.2812 174.141 88.2812 180.586Z" fill="#DD62C6"/>
<path d="M175.742 127.305C180.273 131.875 182.695 137.93 182.695 143.867C182.695 156.719 171.562 167.305 157.266 168.75C157.422 169.844 157.539 170.937 157.539 172.07C157.539 185.898 144.648 197.109 128.789 197.109C116.953 197.109 106.797 190.898 102.383 181.992C101.914 181.094 100.977 180.625 100.039 180.625V168.906C105.547 168.906 110.469 171.914 112.891 176.758C115.43 181.914 121.836 185.352 128.789 185.352C138.008 185.352 145.82 179.258 145.82 172.031C145.82 171.641 145.781 171.133 145.664 170.469C145.195 167.305 146.016 164.062 148.008 161.523C149.961 158.984 152.891 157.383 156.094 157.031C164.453 156.211 170.977 150.391 170.977 143.828C170.977 140.82 169.688 137.812 167.422 135.547C164.414 132.539 163.281 128.125 164.453 124.062C165.625 120 168.906 116.836 173.047 115.898C180.273 114.219 185.312 108.984 185.312 103.164C185.312 99.5703 183.516 96.0937 180.273 93.2812C177.773 91.1328 176.289 88.0468 176.172 84.7265C176.055 81.4453 177.344 78.2422 179.727 75.9375C180.625 75.0781 181.68 73.6328 181.68 71.7969C181.68 68.125 177.344 64.8828 172.187 64.7656C167.93 64.6484 164.062 62.2265 162.109 58.4375C160.156 54.6484 160.391 50.0781 162.773 46.5234C163.398 45.5859 163.75 44.6093 163.75 43.5937C163.75 39.7656 159.258 36.5234 153.906 36.5234C153.477 36.5234 152.617 36.6015 151.797 36.6797C148.281 37.1484 144.766 35.9765 142.188 33.5547C139.648 31.1718 138.32 27.7734 138.555 24.2968C138.164 18.8281 131.367 14.6875 125.352 14.6094H125.156C119.727 14.6094 114.727 17.1875 112.656 21.0937C110.156 25.8203 104.961 28.125 100 27.1093V16.9531C100.938 16.9531 101.875 16.5234 102.344 15.625C106.406 8.04685 115.273 2.81248 125.547 2.92966C138.906 3.08591 150.156 12.8906 150.352 24.4922C150.352 24.6875 150.312 24.8828 150.312 25.1172C151.445 24.9609 152.852 24.8437 153.945 24.8437C165.859 24.8437 175.508 33.2422 175.508 43.6328C175.508 47.0703 174.414 50.2734 172.578 53.0469C184.18 53.3594 193.477 61.6406 193.477 71.7969C193.477 76.6406 191.367 81.0156 187.93 84.3359C194.102 89.6093 197.07 96.4062 197.07 103.086C197.07 114.727 188.008 124.453 175.742 127.305Z" fill="#66D4FF"/>
<path d="M126.992 168.047C130.228 168.047 132.852 165.424 132.852 162.188C132.852 158.951 130.228 156.328 126.992 156.328C123.756 156.328 121.133 158.951 121.133 162.188C121.133 165.424 123.756 168.047 126.992 168.047Z" fill="white"/>
<path d="M126.992 48.5547C130.228 48.5547 132.852 45.9313 132.852 42.6953C132.852 39.4592 130.228 36.8359 126.992 36.8359C123.756 36.8359 121.133 39.4592 121.133 42.6953C121.133 45.9313 123.756 48.5547 126.992 48.5547Z" fill="white"/>
<path d="M152.227 148.672C155.463 148.672 158.086 146.049 158.086 142.812C158.086 139.576 155.463 136.953 152.227 136.953C148.991 136.953 146.367 139.576 146.367 142.812C146.367 146.049 148.991 148.672 152.227 148.672Z" fill="white"/>
<path d="M152.227 67.3437C155.463 67.3437 158.086 64.7204 158.086 61.4843C158.086 58.2483 155.463 55.625 152.227 55.625C148.991 55.625 146.367 58.2483 146.367 61.4843C146.367 64.7204 148.991 67.3437 152.227 67.3437Z" fill="white"/>
<path d="M128.75 200C116.367 200 105.156 193.672 100 183.789C94.8047 193.672 83.5937 200 71.25 200C53.789 200 39.5703 187.461 39.5703 172.031C39.5703 171.758 39.5703 171.484 39.5703 171.211C31.1328 169.687 23.8281 165.195 19.2187 158.672C18.2812 157.344 18.5937 155.508 19.9219 154.57C21.25 153.633 23.0859 153.945 24.0234 155.273C28.125 161.055 35.2734 165 43.0859 165.781C43.8672 165.859 44.6094 166.25 45.1172 166.914C45.625 167.539 45.8203 168.359 45.7031 169.141C45.5469 170.234 45.4687 171.172 45.4687 171.992C45.4687 184.18 57.0703 194.102 71.289 194.102C81.6797 194.102 91.0156 188.828 95.0781 180.625C96.0156 178.789 97.8906 177.617 100.039 177.617C102.187 177.617 104.102 178.75 105 180.625C109.062 188.828 118.398 194.102 128.789 194.102C143.047 194.102 154.609 184.18 154.609 171.992C154.609 171.133 154.531 170.234 154.375 169.102C154.258 168.32 154.453 167.5 154.961 166.875C155.469 166.25 156.172 165.82 156.992 165.742C160.703 165.352 164.219 164.336 167.422 162.656C168.867 161.914 170.625 162.461 171.367 163.906C172.109 165.352 171.562 167.109 170.117 167.852C167.109 169.414 163.867 170.547 160.469 171.172V171.992C160.469 187.461 146.25 200 128.75 200Z" fill="black"/>
<path d="M17.3047 146.758C15.7031 146.758 14.375 145.43 14.375 143.828C14.375 138.516 16.0938 133.242 19.1797 128.789C7.69531 124.453 0 114.414 0 103.125C0 96.1328 2.8125 89.5312 7.96875 84.1797C5.11719 80.5469 3.59375 76.25 3.59375 71.7969C3.59375 61.3672 11.7578 52.6953 22.8906 50.5859C22.0312 48.3594 21.6016 45.9765 21.6016 43.6328C21.6016 36.8359 25.0781 30.5469 31.1719 26.4062C32.5 25.5078 34.3359 25.8594 35.2344 27.1875C36.1328 28.5156 35.7812 30.3515 34.4531 31.25C30 34.2969 27.4219 38.789 27.4219 43.6328C27.4219 46.3281 28.2812 49.0234 29.8438 51.4453C30.4297 52.3437 30.5078 53.4766 30 54.4141C29.4922 55.3516 28.5547 55.9765 27.4609 56.0156C17.3438 56.289 9.41406 63.2422 9.41406 71.8359C9.41406 75.6641 11.0547 79.375 14.0625 82.2656C14.6484 82.8516 14.9609 83.6328 14.9609 84.4531C14.9219 85.2734 14.5703 86.0547 13.9453 86.6016C8.75 91.0937 5.85938 96.9531 5.85938 103.125C5.85938 113.047 13.7109 121.836 24.9219 124.414C25.9375 124.648 26.7969 125.43 27.0703 126.445C27.3828 127.461 27.0703 128.555 26.3281 129.336C22.4609 133.242 20.2344 138.516 20.2344 143.828C20.2344 145.469 18.9453 146.758 17.3047 146.758Z" fill="black"/>
<path d="M179.062 158.946C178.516 158.946 177.969 158.789 177.5 158.477C176.133 157.617 175.742 155.781 176.602 154.414C178.672 151.172 179.766 147.5 179.766 143.828C179.766 138.516 177.539 133.242 173.672 129.336C172.93 128.594 172.656 127.5 172.93 126.446C173.203 125.391 174.062 124.649 175.078 124.414C186.328 121.797 194.141 113.047 194.141 103.125C194.141 96.9533 191.25 91.0549 186.055 86.6018C185.43 86.0549 185.078 85.2737 185.039 84.4533C185 83.633 185.352 82.8518 185.938 82.2658C188.945 79.3752 190.586 75.6643 190.586 71.8362C190.586 63.2424 182.656 56.2893 172.539 56.0158C171.484 55.9768 170.508 55.3908 170 54.4533C169.492 53.5158 169.57 52.383 170.156 51.4846C171.758 49.1018 172.578 46.4065 172.578 43.6721C172.578 34.9221 164.219 27.8127 153.945 27.8127C153.047 27.8127 151.797 27.8908 150.703 28.0471C149.844 28.1643 148.945 27.8908 148.32 27.2658C147.695 26.6408 147.344 25.7815 147.422 24.9221V24.7268C147.422 24.6877 147.422 24.6096 147.422 24.5705C147.227 14.6096 137.227 6.05491 125.508 5.89866C116.68 5.78148 108.594 10.1565 104.922 17.0315C103.984 18.7893 102.109 19.883 100 19.883C97.9297 19.883 96.0156 18.7893 95.0781 17.0315C91.4062 10.1174 83.3594 5.74241 74.4922 5.8596C62.8125 6.01585 52.7734 14.5705 52.5781 24.5315V24.6487V24.844C52.6562 25.7424 52.3047 26.6018 51.6797 27.1877C51.0547 27.8127 50.1562 28.0862 49.2969 27.969C48.2031 27.8127 46.9531 27.7346 46.0547 27.7346C44.4531 27.7346 43.125 26.4065 43.125 24.8049C43.125 23.2033 44.4531 21.8752 46.0547 21.8752H46.914C47.6562 16.3674 50.5469 11.2112 55.1953 7.14866C60.4687 2.65647 67.3047 0.0783499 74.4531 0.000224943C85.2344 -0.116963 95.2344 5.27366 100 13.7893C104.727 5.35179 114.531 0.000224943 125.156 0.000224943H125.547C132.695 0.0783499 139.531 2.65647 144.766 7.18772C149.414 11.2502 152.305 16.4065 153.047 21.9143H153.906C167.422 21.9143 178.398 31.6408 178.398 43.633C178.398 46.0158 177.969 48.3596 177.109 50.5862C188.203 52.6955 196.406 61.3674 196.406 71.7971C196.406 76.2502 194.883 80.5471 192.031 84.1799C197.188 89.4924 200 96.133 200 103.125C200 114.414 192.305 124.453 180.781 128.789C183.867 133.242 185.586 138.516 185.586 143.828C185.586 148.672 184.18 153.438 181.484 157.578C180.977 158.477 180.039 158.946 179.062 158.946Z" fill="black"/>
<path d="M37.1094 59.5703C36.4062 59.5703 35.7422 59.3359 35.1562 58.8281C32.0312 56.0547 27.4609 55.9766 27.4219 55.9766C25.8203 55.9766 24.4922 54.6484 24.4922 53.0469C24.4922 51.4453 25.7812 50.1172 27.4219 50.1172C27.7344 50.1172 34.2187 50.1562 39.0234 54.4531C40.2344 55.5078 40.3515 57.3828 39.2578 58.5937C38.7109 59.2578 37.9297 59.5703 37.1094 59.5703Z" fill="black"/>
<path d="M42.7734 171.641C42.6562 171.641 42.5 171.641 42.3828 171.602C40.7812 171.367 39.6484 169.922 39.8828 168.32C39.9219 168.047 40.8203 161.484 45.664 156.797C46.8359 155.664 48.6719 155.703 49.8047 156.875C50.9375 158.047 50.8984 159.883 49.7265 161.016C46.4062 164.219 45.664 169.063 45.664 169.102C45.4687 170.586 44.2187 171.641 42.7734 171.641Z" fill="black"/>
<path d="M178.867 91.6016C177.344 91.6016 176.055 90.4297 175.937 88.9062C175.82 87.3047 177.031 85.8984 178.633 85.7422C182.734 85.4297 185.781 82.3438 185.82 82.3047C186.953 81.1719 188.789 81.1328 189.961 82.2656C191.094 83.3984 191.133 85.2344 190 86.4062C189.805 86.6016 185.391 91.0547 179.063 91.5625C179.023 91.6016 178.945 91.6016 178.867 91.6016Z" fill="black"/>
<path d="M146.406 38.9844C145.742 38.9844 145.078 38.75 144.531 38.3203C143.281 37.2656 143.125 35.4297 144.18 34.1797C147.344 30.4297 147.422 24.5703 147.422 24.5313C147.422 22.9297 148.75 21.6016 150.352 21.6016C151.953 21.6016 153.281 22.9297 153.281 24.5313C153.281 24.8438 153.242 32.5 148.672 37.9688C148.086 38.6328 147.266 38.9844 146.406 38.9844Z" fill="black"/>
<path d="M100 183.516C98.3984 183.516 97.0703 182.188 97.0703 180.586V50.7422C97.0703 49.1406 98.3984 47.8125 100 47.8125C101.602 47.8125 102.93 49.1406 102.93 50.7422V180.586C102.93 182.227 101.602 183.516 100 183.516Z" fill="black"/>
<path d="M100 40.1563C98.3984 40.1563 97.0703 38.8281 97.0703 37.2266V16.9531C97.0703 15.3516 98.3984 14.0234 100 14.0234C101.602 14.0234 102.93 15.3516 102.93 16.9531V37.2266C102.93 38.8281 101.602 40.1563 100 40.1563Z" fill="black"/>
<path d="M126.992 170.977C122.148 170.977 118.203 167.031 118.203 162.188C118.203 157.344 122.148 153.398 126.992 153.398C131.836 153.398 135.781 157.344 135.781 162.188C135.781 167.031 131.836 170.977 126.992 170.977ZM126.992 159.258C125.391 159.258 124.063 160.586 124.063 162.188C124.063 163.789 125.391 165.117 126.992 165.117C128.594 165.117 129.922 163.789 129.922 162.188C129.922 160.586 128.633 159.258 126.992 159.258Z" fill="black"/>
<path d="M129.922 156.328H124.063C124.063 151.016 122.852 147.109 120.43 144.766C116.446 140.937 109.336 141.211 103.633 141.406C102.344 141.445 101.172 141.484 100.039 141.484V135.625C101.055 135.625 102.227 135.586 103.438 135.547C109.922 135.312 118.789 135 124.531 140.547C128.086 144.062 129.922 149.375 129.922 156.328Z" fill="black"/>
<path d="M126.992 51.4844C122.148 51.4844 118.203 47.5391 118.203 42.6953C118.203 37.8516 122.148 33.9062 126.992 33.9062C131.836 33.9062 135.781 37.8516 135.781 42.6953C135.781 47.5391 131.836 51.4844 126.992 51.4844ZM126.992 39.7656C125.391 39.7656 124.063 41.0938 124.063 42.6953C124.063 44.2969 125.391 45.625 126.992 45.625C128.594 45.625 129.922 44.2969 129.922 42.6953C129.922 41.0938 128.633 39.7656 126.992 39.7656Z" fill="black"/>
<path d="M107.773 69.4141C106.25 69.4141 104.766 69.375 103.398 69.2969C102.188 69.2578 101.016 69.2187 100 69.2187V63.3594C101.133 63.3594 102.344 63.3984 103.594 63.4375C109.336 63.6328 116.445 63.9062 120.391 60.0781C122.813 57.7344 124.023 53.8672 124.023 48.5156H129.883C129.883 55.5078 128.047 60.7812 124.453 64.2969C119.961 68.6719 113.477 69.4141 107.773 69.4141Z" fill="black"/>
<path d="M152.227 151.602C147.383 151.602 143.438 147.656 143.438 142.812C143.438 137.969 147.383 134.023 152.227 134.023C157.07 134.023 161.016 137.969 161.016 142.812C161.016 147.656 157.07 151.602 152.227 151.602ZM152.227 139.883C150.625 139.883 149.297 141.211 149.297 142.812C149.297 144.414 150.625 145.742 152.227 145.742C153.828 145.742 155.156 144.414 155.156 142.812C155.156 141.211 153.867 139.883 152.227 139.883Z" fill="black"/>
<path d="M155.156 136.953H149.297C149.297 118.008 133.281 117.187 100 117.187V111.328C115.508 111.328 128.906 111.328 138.516 114.297C149.727 117.734 155.156 125.117 155.156 136.953Z" fill="black"/>
<path d="M152.227 70.2734C147.383 70.2734 143.438 66.3281 143.438 61.4844C143.438 56.6406 147.383 52.6953 152.227 52.6953C157.07 52.6953 161.016 56.6406 161.016 61.4844C161.016 66.3281 157.07 70.2734 152.227 70.2734ZM152.227 58.5547C150.625 58.5547 149.297 59.8828 149.297 61.4844C149.297 63.0859 150.625 64.4141 152.227 64.4141C153.828 64.4141 155.156 63.0859 155.156 61.4844C155.156 59.8828 153.867 58.5547 152.227 58.5547Z" fill="black"/>
<path d="M100 93.0078V87.1484C133.281 87.1484 149.297 86.2891 149.297 67.3828H155.156C155.156 79.1797 149.727 86.6016 138.516 90.0391C128.906 93.0078 115.508 93.0078 100 93.0078Z" fill="black"/>
<path d="M161.641 105.351C161.445 105.351 161.25 105.312 161.055 105.273C160.859 105.234 160.664 105.195 160.508 105.117C160.312 105.039 160.156 104.961 160 104.844C159.844 104.726 159.687 104.609 159.57 104.492C159.023 103.945 158.711 103.203 158.711 102.422C158.711 102.226 158.711 102.031 158.75 101.836C158.789 101.64 158.828 101.445 158.906 101.289C158.984 101.094 159.062 100.937 159.18 100.781C159.297 100.625 159.414 100.469 159.531 100.351C159.648 100.234 159.805 100.078 159.961 99.9999C160.117 99.8827 160.273 99.8045 160.469 99.7264C160.664 99.6483 160.82 99.6092 161.016 99.5702C161.953 99.3749 162.969 99.6874 163.672 100.351C163.789 100.508 163.945 100.625 164.023 100.781C164.141 100.937 164.219 101.133 164.297 101.289C164.375 101.445 164.414 101.64 164.453 101.836C164.492 102.031 164.531 102.226 164.531 102.422C164.531 102.617 164.531 102.812 164.453 103.008C164.414 103.203 164.375 103.359 164.297 103.555C164.219 103.75 164.141 103.906 164.023 104.062C163.906 104.219 163.789 104.375 163.672 104.492C163.164 105.039 162.422 105.351 161.641 105.351Z" fill="black"/>
<path d="M141.719 105.352C141.523 105.352 141.328 105.313 141.133 105.273C140.938 105.234 140.742 105.195 140.586 105.117C140.391 105.039 140.234 104.961 140.078 104.844C139.922 104.727 139.766 104.609 139.648 104.492C139.531 104.375 139.375 104.219 139.297 104.062C139.18 103.906 139.102 103.75 139.023 103.555C138.945 103.359 138.906 103.203 138.867 103.008C138.828 102.813 138.828 102.617 138.828 102.422C138.828 102.227 138.828 102.031 138.867 101.836C138.906 101.641 138.945 101.445 139.023 101.289C139.102 101.094 139.18 100.938 139.297 100.781C139.414 100.625 139.531 100.469 139.648 100.352C139.766 100.234 139.922 100.078 140.078 100C140.234 99.8828 140.391 99.8047 140.586 99.7266C140.781 99.6484 140.938 99.6094 141.133 99.5703C141.523 99.4922 141.914 99.4922 142.266 99.5703C142.461 99.6094 142.656 99.6875 142.813 99.7266C143.008 99.8047 143.164 99.8828 143.32 100C143.477 100.117 143.633 100.234 143.75 100.352C143.867 100.508 144.023 100.625 144.102 100.781C144.219 100.938 144.297 101.133 144.375 101.289C144.453 101.445 144.492 101.641 144.531 101.836C144.57 102.031 144.609 102.227 144.609 102.422C144.609 103.203 144.297 103.945 143.75 104.492C143.633 104.609 143.477 104.766 143.32 104.844C143.164 104.961 143.008 105.039 142.813 105.117C142.617 105.195 142.461 105.234 142.266 105.273C142.07 105.313 141.914 105.352 141.719 105.352Z" fill="black"/>
<path d="M126.992 24.6875C126.796 24.6875 126.601 24.6875 126.406 24.6484C126.21 24.6094 126.015 24.5703 125.859 24.4922C125.663 24.4141 125.507 24.3359 125.351 24.2188C125.195 24.1016 125.038 23.9844 124.921 23.8672C124.804 23.7109 124.648 23.5938 124.57 23.4375C124.453 23.2812 124.374 23.125 124.296 22.9297C124.218 22.7344 124.179 22.5781 124.14 22.3828C124.101 22.1875 124.101 21.9922 124.101 21.7969C124.101 21.6016 124.14 21.4062 124.14 21.2109C124.179 21.0156 124.218 20.8203 124.296 20.6641C124.374 20.5078 124.453 20.3125 124.57 20.1562C124.687 20 124.804 19.8438 124.921 19.7266C125.038 19.6094 125.195 19.4531 125.351 19.375C125.507 19.2578 125.663 19.1797 125.859 19.1016C126.015 19.0234 126.21 18.9844 126.406 18.9453C126.796 18.8672 127.187 18.8672 127.538 18.9453C127.734 18.9844 127.929 19.0234 128.085 19.1016C128.281 19.1797 128.437 19.2578 128.593 19.375C128.749 19.4922 128.906 19.6094 129.023 19.7266C129.14 19.8828 129.296 20 129.374 20.1562C129.492 20.3125 129.57 20.5078 129.648 20.6641C129.726 20.8594 129.765 21.0156 129.804 21.2109C129.843 21.4062 129.843 21.6016 129.843 21.7969C129.843 21.9922 129.843 22.1875 129.804 22.3828C129.765 22.5781 129.726 22.7734 129.648 22.9297C129.57 23.125 129.492 23.2812 129.374 23.4375C129.257 23.5938 129.14 23.75 129.023 23.8672C128.867 23.9844 128.749 24.1406 128.593 24.2188C128.437 24.2969 128.281 24.4141 128.085 24.4922C127.89 24.5703 127.734 24.6094 127.538 24.6484C127.382 24.6875 127.187 24.6875 126.992 24.6875Z" fill="black"/>
<path d="M126.992 186.016C126.797 186.016 126.602 185.977 126.406 185.937C126.211 185.898 126.016 185.859 125.859 185.781C125.664 185.703 125.508 185.625 125.352 185.508C125.195 185.391 125.039 185.273 124.922 185.156C124.805 185 124.648 184.883 124.57 184.727C124.453 184.57 124.375 184.414 124.297 184.219C124.219 184.023 124.18 183.867 124.141 183.672C124.102 183.477 124.063 183.281 124.063 183.086C124.063 182.891 124.063 182.695 124.141 182.5C124.18 182.305 124.219 182.109 124.297 181.953C124.375 181.758 124.453 181.602 124.57 181.445C124.688 181.289 124.805 181.133 124.922 181.016C125.039 180.898 125.195 180.742 125.352 180.664C125.508 180.547 125.664 180.469 125.859 180.391C126.016 180.312 126.211 180.273 126.406 180.234C126.797 180.156 127.188 180.156 127.539 180.234C127.734 180.273 127.93 180.312 128.086 180.391C128.281 180.469 128.438 180.547 128.594 180.664C128.75 180.781 128.906 180.898 129.023 181.016C129.141 181.172 129.297 181.289 129.375 181.445C129.492 181.602 129.57 181.758 129.648 181.953C129.727 182.109 129.766 182.305 129.805 182.5C129.844 182.695 129.844 182.891 129.844 183.086C129.844 183.281 129.844 183.477 129.805 183.672C129.766 183.867 129.727 184.023 129.648 184.219C129.57 184.414 129.492 184.57 129.375 184.727C129.258 184.883 129.141 185.039 129.023 185.156C128.867 185.273 128.75 185.43 128.594 185.508C128.438 185.625 128.281 185.703 128.086 185.781C127.891 185.859 127.734 185.898 127.539 185.937C127.383 186.016 127.188 186.016 126.992 186.016Z" fill="black"/>
<path d="M36.0156 103.32C35.9375 103.32 35.8985 103.32 35.8203 103.32C34.2188 103.242 32.9688 101.836 33.086 100.234C33.086 100.039 33.3985 95.3516 36.0156 90.1172C38.4375 85.2344 43.4375 78.9062 53.3594 76.5234C54.9219 76.1328 56.5234 77.1094 56.9141 78.6719C57.3047 80.2344 56.3281 81.8359 54.7656 82.2266C40.1172 85.7812 39.0235 99.9609 38.9844 100.586C38.8281 102.109 37.5391 103.32 36.0156 103.32Z" fill="black"/>
<path d="M65.4297 53.6719C64.2187 53.6719 63.0859 52.9297 62.6562 51.7187C62.1094 50.1953 62.9297 48.5156 64.4531 47.9688C64.8828 47.8125 74.375 44.2969 75.2734 35.1172C75.4297 33.5156 76.8359 32.3047 78.4765 32.4609C80.0781 32.6172 81.289 34.0234 81.1328 35.6641C79.9219 48.6328 66.9922 53.3203 66.4453 53.5156C66.0937 53.6328 65.7422 53.6719 65.4297 53.6719Z" fill="black"/>
<path d="M77.3438 163.32C76.9141 163.32 76.4844 163.242 76.0938 163.047C61.0547 155.898 62.4609 139.258 62.5 138.555C62.6563 136.953 64.0625 135.781 65.7031 135.898C67.3047 136.055 68.4766 137.461 68.3594 139.062C68.3203 139.609 67.3438 152.383 78.6328 157.734C80.0781 158.437 80.7031 160.195 80 161.641C79.4922 162.695 78.4375 163.32 77.3438 163.32Z" fill="black"/>
<path d="M70.4297 114.219C69.3359 114.219 68.2812 113.594 67.7734 112.539C67.0703 111.094 67.6953 109.336 69.1406 108.633C74.8828 105.898 74.414 99.2969 74.414 99.0234C74.2969 97.4219 75.4687 96.0156 77.0703 95.8594C78.6719 95.7031 80.0781 96.875 80.2344 98.4766C80.2734 98.9063 81.1328 109.414 71.6406 113.906C71.25 114.141 70.8594 114.219 70.4297 114.219Z" fill="black"/>
</g>
<defs>
<clipPath id="clip0">
<rect width="200" height="200" fill="white"/>
</clipPath>
</defs>
</svg>
