<svg width="150" height="157" viewBox="0 0 150 157" fill="none" xmlns="http://www.w3.org/2000/svg">
<g clip-path="url(#clip0)">
<path d="M9.45722 16.9128H45.3309C47.6804 16.9128 49.8505 18.2264 51.0229 20.3573L56.9272 28.7995C58.0995 30.9304 60.27 32.244 62.6191 32.244H150V128.63C150 133.692 146.079 137.796 141.242 137.796H8.75734C3.92094 137.796 0 133.692 0 128.63V42.9361C0 35.851 1.04582 28.8082 3.10062 22.0574C3.85336 19.0277 6.46646 16.9128 9.45722 16.9128Z" fill="#FF7373"/>
<path d="M128.95 30.6672H13.6501V81.6462H128.95V30.6672Z" fill="#EBF0F3"/>
<path d="M143.432 21.4958H107.281C104.71 21.4958 102.376 23.0659 101.307 25.5133L95.1212 39.6837C94.0527 42.1311 91.7182 43.7011 89.1474 43.7011H0V130.921C0 135.983 3.92094 140.087 8.75734 140.087H141.243C146.079 140.087 150 135.983 150 130.921V28.3704C150 24.5739 147.059 21.4958 143.432 21.4958Z" fill="#FF7575"/>
</g>
<defs>
<clipPath id="clip0">
<rect width="150" height="157" fill="white"/>
</clipPath>
</defs>
</svg>
