<svg width="200" height="200" viewBox="0 0 200 200" fill="none" xmlns="http://www.w3.org/2000/svg">
<g clip-path="url(#clip0)">
<path d="M180 100V73.3332C180 62.2875 171.046 53.3332 160 53.3332H111.198C108.687 53.3332 106.664 55.3887 106.667 57.9004C106.671 60.957 107.157 63.9012 108.047 66.6668H13.5973C6.12618 66.6668 -0.135534 72.7808 0.00235692 80.2508C0.135951 87.4953 6.05704 93.3336 13.3332 93.3336H26.6668V173.334H146.667H160C171.047 173.334 180 164.38 180 153.334H194.141C197.377 153.334 200 150.71 200 147.474V105.859C200 102.623 197.377 100 194.141 100H180Z" fill="#FFDCC8"/>
<path d="M128.947 0H44.3863C34.6156 0 26.6668 7.94883 26.6668 17.7191V182.28C26.6668 192.051 34.616 200 44.3863 200H128.947C138.718 200 146.667 192.051 146.667 182.28V17.7191C146.667 7.94883 138.718 0 128.947 0V0Z" fill="#00366D"/>
<path d="M146.667 182.281V17.7191C146.667 7.94883 138.718 0 128.947 0H86.6668V200H128.947C138.718 200 146.667 192.051 146.667 182.281Z" fill="#01223C"/>
<path d="M128.255 11.7188H121.562V18.4113C121.562 28.5797 113.319 36.8227 103.151 36.8227H70.1824C60.014 36.8227 51.771 28.5797 51.771 18.4113V11.7188H45.0785C41.3882 11.7188 38.3855 14.7211 38.3855 18.4113V181.588C38.3855 185.279 41.3882 188.281 45.0785 188.281H128.255C131.945 188.281 134.948 185.279 134.948 181.588V18.4113C134.948 14.7211 131.945 11.7188 128.255 11.7188Z" fill="#FF7575"/>
<path d="M134.948 181.589V18.4113C134.948 14.7211 131.945 11.7188 128.255 11.7188H121.563V18.4113C121.563 28.5797 113.32 36.8227 103.151 36.8227H86.6668V188.281H128.255C131.945 188.281 134.948 185.279 134.948 181.589Z" fill="#FF9595"/>
<path d="M26.6668 173.333C34.0305 173.333 40 167.364 40 160C40 152.636 34.0305 146.667 26.6668 146.667C19.3031 146.667 13.3336 152.636 13.3336 160C13.3336 167.364 19.3031 173.333 26.6668 173.333Z" fill="#FFC5BB"/>
<path d="M43.3332 120C50.6934 120 56.6668 114.027 56.6668 106.667C56.6668 99.307 50.6934 93.3336 43.3332 93.3336H16.6668C9.30667 93.3336 3.33362 99.307 3.33362 106.667C3.33362 114.027 9.30667 120 16.6668 120H23.3336C15.9735 120 10.0004 125.973 10.0004 133.333C10.0004 140.693 15.9739 146.666 23.3336 146.666H43.3336C50.6938 146.666 56.6672 140.693 56.6672 133.333C56.6672 125.973 50.6934 120 43.3332 120Z" fill="#FFC5BB"/>
<path d="M99.2188 174.896H74.1145C70.8786 174.896 68.2551 172.272 68.2551 169.036C68.2551 165.8 70.8786 163.177 74.1145 163.177H99.2188C102.455 163.177 105.078 165.8 105.078 169.036C105.078 172.272 102.455 174.896 99.2188 174.896Z" fill="#FF9595"/>
<path d="M105.078 169.036C105.078 165.8 102.455 163.177 99.2188 163.177H86.6668V174.896H99.2188C102.455 174.896 105.078 172.273 105.078 169.036Z" fill="#FF7575"/>
<path d="M180 91.4062V73.3332C180 62.2875 171.046 53.3332 160 53.3332H111.198C108.697 53.3332 106.667 55.3629 106.667 57.8652C106.667 73.7465 119.587 86.6668 135.468 86.6668H146.666V173.334H160C171.047 173.334 180 164.38 180 153.334H194.141C197.377 153.334 200 150.71 200 147.474V97.2656C200 94.0297 197.377 91.4062 194.141 91.4062H180Z" fill="#FFC5BB"/>
<path d="M43.3332 120H23.3332C15.973 120 10 125.973 10 133.333C10 140.693 15.9734 146.666 23.3332 146.666H43.3332C50.6934 146.666 56.6668 140.693 56.6668 133.333C56.6668 125.973 50.6934 120 43.3332 120Z" fill="#FFADAD"/>
<path d="M146.667 120V173.333H160C171.047 173.333 180 164.38 180 153.333H194.141C197.377 153.333 200 150.71 200 147.474V120H146.667Z" fill="#FFADAD"/>
</g>
<defs>
<clipPath id="clip0">
<rect width="200" height="200" fill="white"/>
</clipPath>
</defs>
</svg>
