<svg width="144" height="130" viewBox="0 0 144 130" fill="none" xmlns="http://www.w3.org/2000/svg">
<path d="M71.4051 113.392H4.78057C2.14026 113.392 0 115.324 0 117.707V122.023C0 124.407 2.14026 126.339 4.78057 126.339H71.4051C74.0449 126.339 76.1856 124.407 76.1856 122.023V117.707C76.1856 115.324 74.0454 113.392 71.4051 113.392Z" fill="#FF7373"/>
<path d="M4.78057 99.1494H62.4276C65.0675 99.1494 67.2082 97.2172 67.2082 94.8336V90.5178C67.2082 88.1342 65.0675 86.202 62.4276 86.202H4.78057C2.14026 86.202 0 88.1342 0 90.5178V94.8336C0 97.2172 2.14026 99.1494 4.78057 99.1494Z" fill="#FF7373"/>
<path d="M4.78057 71.96H53.4492C56.0891 71.96 58.2298 70.0278 58.2298 67.6442V63.3284C58.2298 60.9448 56.0891 59.0126 53.4492 59.0126H4.78057C2.14026 59.0126 0 60.9448 0 63.3284V67.6442C0 70.0278 2.14026 71.96 4.78057 71.96Z" fill="#FF7373"/>
<path d="M4.78057 41.7493H44.4713C47.1111 41.7493 49.2519 39.8171 49.2519 37.4335V33.1177C49.2519 30.7341 47.1111 28.8019 44.4713 28.8019H4.78057C2.14026 28.8019 0 30.7341 0 33.1177V37.4335C0 39.8171 2.14026 41.7493 4.78057 41.7493Z" fill="#FF7373"/>
<path d="M4.78057 14.5598H35.4929C38.1327 14.5598 40.2735 12.6276 40.2735 10.244V5.92822C40.2735 3.54461 38.1327 1.61243 35.4929 1.61243H4.78057C2.14026 1.61243 0 3.54461 0 5.92822V10.244C0 12.6276 2.14026 14.5598 4.78057 14.5598Z" fill="#FF7373"/>
<path d="M142.6 93.5998L139.22 90.5481C138.324 89.7389 137.107 89.284 135.84 89.284C134.572 89.284 133.356 89.7389 132.459 90.5481L116.017 105.391V8.08618C116.017 5.70257 113.877 3.77039 111.236 3.77039H106.456C103.816 3.77039 101.675 5.70257 101.675 8.08618V105.391L85.2329 90.5477C84.336 89.738 83.1203 89.2836 81.8525 89.2836C80.5847 89.2836 79.3685 89.7385 78.4722 90.5477L75.0923 93.5994C73.2255 95.2847 73.2255 98.0175 75.0923 99.7028L105.466 127.124C106.363 127.933 107.578 128.388 108.846 128.388C110.114 128.388 111.33 127.933 112.226 127.124L142.6 99.7028C144.467 98.0175 144.467 95.2851 142.6 93.5998Z" fill="#FF7373"/>
</svg>
