<svg width="140" height="149" viewBox="0 0 140 149" fill="none" xmlns="http://www.w3.org/2000/svg">
<path d="M125.417 0H88.4157C81.404 0 74.8065 2.9055 69.8482 8.18249L4.97574 77.2318C1.81426 80.5965 0 85.2527 0 90.0332C0 94.7887 1.81426 99.445 4.97574 102.81L43.4057 143.71C46.5618 147.069 50.9368 149 55.4282 149C59.8965 149 64.2715 147.069 67.4332 143.704L132.311 74.6554C137.27 69.3842 140 62.3626 140 54.9004V15.5207C140 6.95964 133.461 0 125.417 0ZM107.917 49.6668C99.8725 49.6668 93.3335 42.7071 93.3335 34.146C93.3335 25.5846 99.8728 18.6253 107.917 18.6253C115.961 18.6253 122.5 25.5846 122.5 34.1457C122.5 42.7071 115.961 49.6668 107.917 49.6668Z" fill="#FF7373"/>
</svg>
