<svg width="25" height="15" viewBox="0 0 25 15" fill="none" xmlns="http://www.w3.org/2000/svg">
<path d="M23.7179 0H1.28208C0.576903 0 0 0.519213 0 1.15383V13.8461C0 14.4807 0.576903 15 1.28208 15H23.7179C24.423 15 25 14.4808 25 13.8461V1.15383C25 0.519213 24.423 0 23.7179 0ZM23.2368 0.865326L13.2375 7.6154C13.0577 7.73854 12.7817 7.81557 12.4999 7.81443C12.2182 7.81557 11.9423 7.73854 11.7624 7.6154L1.76313 0.865326H23.2368ZM17.8955 8.06078L23.3442 14.1185C23.3497 14.1246 23.3564 14.1292 23.3622 14.1347H1.63779C1.64355 14.1289 1.65029 14.1246 1.65576 14.1185L7.10448 8.06078C7.27142 7.87503 7.23978 7.6027 7.03299 7.4521C6.8266 7.30185 6.52401 7.33033 6.35702 7.51613L0.961522 13.5147V1.4062L11.1858 8.30763C11.5701 8.56523 12.0377 8.67861 12.4999 8.67975C12.9614 8.67887 13.4294 8.5655 13.8139 8.30763L24.0382 1.4062V13.5146L18.6429 7.51613C18.4759 7.33037 18.173 7.30181 17.9669 7.4521C17.7602 7.60235 17.7284 7.87503 17.8955 8.06078Z" fill="#AAAAAA"/>
</svg>
