<svg width="15" height="15" viewBox="0 0 15 15" fill="none" xmlns="http://www.w3.org/2000/svg">
<path d="M3.32432 9.06465L2.80219 11.0138L0.893818 11.0542C0.323496 9.99638 0 8.78609 0 7.49996C0 6.25628 0.302461 5.08347 0.838594 4.05078H0.839004L2.53799 4.36227L3.28225 6.05105C3.12647 6.50519 3.04157 6.99269 3.04157 7.49996C3.04163 8.05051 3.14136 8.578 3.32432 9.06465Z" fill="#FBBB00"/>
<path d="M14.869 6.09888C14.9551 6.55257 15 7.02111 15 7.49997C15 8.03692 14.9436 8.56069 14.836 9.06592C14.4709 10.7851 13.5169 12.2864 12.1954 13.3487L12.195 13.3483L10.055 13.2391L9.75214 11.3485C10.6291 10.8342 11.3144 10.0294 11.6754 9.06592H7.66492V6.09888H11.7339H14.869Z" fill="#518EF8"/>
<path d="M12.195 13.3485L12.1954 13.3489C10.9101 14.382 9.27736 15.0001 7.50004 15.0001C4.64386 15.0001 2.16063 13.4037 0.89386 11.0544L3.32436 9.06482C3.95773 10.7552 5.58836 11.9585 7.50004 11.9585C8.32173 11.9585 9.09153 11.7364 9.75209 11.3486L12.195 13.3485Z" fill="#28B446"/>
<path d="M12.2872 1.72664L9.85752 3.71578C9.17388 3.28846 8.36575 3.0416 7.49997 3.0416C5.54502 3.0416 3.88388 4.30011 3.28224 6.05109L0.838972 4.05082H0.838562C2.08678 1.64423 4.60134 0 7.49997 0C9.31974 0 10.9883 0.648223 12.2872 1.72664Z" fill="#F14336"/>
</svg>
