<svg width="20" height="25" viewBox="0 0 20 25" fill="none" xmlns="http://www.w3.org/2000/svg">
<path d="M17.5 25H2.5C1.12222 25 0 23.949 0 22.6562V11.7188C0 10.426 1.12222 9.375 2.5 9.375H17.5C18.8778 9.375 20 10.426 20 11.7188V22.6562C20 23.949 18.8778 25 17.5 25ZM2.5 10.9375C2.04111 10.9375 1.66667 11.2875 1.66667 11.7188V22.6562C1.66667 23.0875 2.04111 23.4375 2.5 23.4375H17.5C17.9589 23.4375 18.3333 23.0875 18.3333 22.6562V11.7188C18.3333 11.2875 17.9589 10.9375 17.5 10.9375H2.5Z" fill="#AAAAAA"/>
<path d="M15.8334 10.9375C15.3734 10.9375 15 10.5875 15 10.1562V6.25C15 3.66562 12.7567 1.5625 10 1.5625C7.24337 1.5625 5.00004 3.66562 5.00004 6.25V10.1562C5.00004 10.5875 4.62671 10.9375 4.16671 10.9375C3.70671 10.9375 3.33337 10.5875 3.33337 10.1562V6.25C3.33337 2.80312 6.32337 0 10 0C13.6767 0 16.6667 2.80312 16.6667 6.25V10.1562C16.6667 10.5875 16.2934 10.9375 15.8334 10.9375Z" fill="#AAAAAA"/>
<path d="M9.99999 17.7084C8.77444 17.7084 7.77777 16.774 7.77777 15.625C7.77777 14.4761 8.77444 13.5417 9.99999 13.5417C11.2255 13.5417 12.2222 14.4761 12.2222 15.625C12.2222 16.774 11.2255 17.7084 9.99999 17.7084ZM9.99999 15.1042C9.69444 15.1042 9.44444 15.3375 9.44444 15.625C9.44444 15.9125 9.69444 16.1459 9.99999 16.1459C10.3055 16.1459 10.5555 15.9125 10.5555 15.625C10.5555 15.3375 10.3055 15.1042 9.99999 15.1042Z" fill="#AAAAAA"/>
<path d="M10 20.8333C9.54002 20.8333 9.16669 20.4833 9.16669 20.0521V17.1875C9.16669 16.7563 9.54002 16.4062 10 16.4062C10.46 16.4062 10.8334 16.7563 10.8334 17.1875V20.0521C10.8334 20.4833 10.46 20.8333 10 20.8333Z" fill="#AAAAAA"/>
</svg>
