<svg width="25" height="25" viewBox="0 0 25 25" fill="none" xmlns="http://www.w3.org/2000/svg">
<g clip-path="url(#clip0)">
<path d="M12.5 5.04889C7.72348 5.04889 3.39189 7.66217 0.195612 11.9068C-0.0652041 12.2546 -0.0652041 12.7404 0.195612 13.0882C3.39189 17.3379 7.72348 19.9512 12.5 19.9512C17.2765 19.9512 21.6081 17.3379 24.8044 13.0933C25.0652 12.7455 25.0652 12.2597 24.8044 11.9119C21.6081 7.66217 17.2765 5.04889 12.5 5.04889ZM12.8426 17.7471C9.67193 17.9465 7.05354 15.3332 7.25299 12.1574C7.41664 9.53902 9.53897 7.41669 12.1574 7.25304C15.3281 7.05359 17.9465 9.66687 17.747 12.8427C17.5782 15.456 15.4559 17.5783 12.8426 17.7471ZM12.6841 15.323C10.976 15.4304 9.56454 14.024 9.67705 12.3159C9.76399 10.9045 10.9095 9.76404 12.321 9.67198C14.0291 9.56459 15.4406 10.971 15.3281 12.679C15.236 14.0956 14.0905 15.2361 12.6841 15.323Z" fill="#AAAAAA"/>
</g>
<defs>
<clipPath id="clip0">
<rect width="25" height="25" fill="white"/>
</clipPath>
</defs>
</svg>
