<svg width="63" height="60" viewBox="0 0 63 60" fill="none" xmlns="http://www.w3.org/2000/svg">
<path d="M31.5 59.8956C48.897 59.8956 63 46.6387 63 30.2854C63 13.9321 48.897 0.675171 31.5 0.675171C14.103 0.675171 0 13.9321 0 30.2854C0 46.6387 14.103 59.8956 31.5 59.8956Z" fill="#FF7575"/>
<path d="M63 30.2854C63 29.2213 62.9402 28.1704 62.8238 27.1353L50.7421 15.7784L49.5298 15.8824L45.9043 12.4744L45.7278 18.1913L36.3378 9.36466L35.3683 9.69697L31.5 6.06058L28.5101 14.7105L38.0786 23.7049L34.193 27.3025L21.9333 15.7784L21.1087 16.2467L17.0957 12.4745H17.0956L14.1057 21.1244L27.3846 33.6066L24.1647 36.5879L16.3741 29.2647L15.4986 29.6854L11.5362 25.9607L8.54633 34.6106L17.9176 43.4196L13.8698 47.2739L26.9747 59.5926C28.4526 59.7921 29.9634 59.8956 31.5 59.8956C48.897 59.8956 63 46.6387 63 30.2854Z" fill="#AA1F00" fill-opacity="0.27"/>
<path d="M31.5001 43.3193C39.1579 43.3193 45.3658 37.4838 45.3658 30.2854C45.3658 23.087 39.1579 17.2515 31.5001 17.2515C23.8422 17.2515 17.6343 23.087 17.6343 30.2854C17.6343 37.4838 23.8422 43.3193 31.5001 43.3193Z" fill="white"/>
<path d="M31.5001 17.2513C31.4995 17.2513 31.499 17.2513 31.4984 17.2513V43.3192H31.5001C39.1579 43.3192 45.3659 37.4836 45.3659 30.2851C45.3659 23.0866 39.1579 17.2513 31.5001 17.2513Z" fill="#E9EDF5"/>
<path d="M27.9552 38.2481L21.8857 32.5427L24.4959 30.0891L27.9552 33.3409L38.504 23.4249L41.1142 25.8785L27.9552 38.2481Z" fill="#555A66"/>
<path d="M38.5041 23.4249L31.4984 30.0104V34.9176L41.1143 25.8785L38.5041 23.4249Z" fill="#333940"/>
<path d="M31.4999 6.06058L32.9948 8.9079L36.3376 9.36454L33.9188 11.5809L34.4899 14.7105L31.4999 13.2328L28.51 14.7105L29.0811 11.5809L26.6622 9.36454L30.005 8.9079L31.4999 6.06058Z" fill="#FFCE00"/>
<path d="M36.3377 9.36454L32.9949 8.9079L31.5 6.06058V13.2328L34.4899 14.7105L33.9189 11.5809L36.3377 9.36454Z" fill="#FDBA12"/>
<path d="M52.065 25.9604L53.5599 28.8077L56.9027 29.2644L54.4839 31.4807L55.0549 34.6103L52.065 33.1327L49.0751 34.6103L49.6461 31.4807L47.2273 29.2644L50.57 28.8077L52.065 25.9604Z" fill="#FDBA12"/>
<path d="M11.5364 25.9604L13.0313 28.8077L16.3741 29.2644L13.9553 31.4807L14.5264 34.6103L11.5364 33.1327L8.54652 34.6103L9.11758 31.4807L6.69873 29.2644L10.0415 28.8077L11.5364 25.9604Z" fill="#FFCE00"/>
<path d="M17.0956 12.4743L18.5907 15.3217L21.9335 15.7783L19.5146 17.9946L20.0856 21.1242L17.0956 19.6467L14.1059 21.1242L14.6768 17.9946L12.2579 15.7783L15.6008 15.3217L17.0956 12.4743Z" fill="#FFCE00"/>
<path d="M16.8599 38.6238L18.3548 41.4711L21.6976 41.9277L19.2787 44.1441L19.8498 47.2737L16.8599 45.796L13.87 47.2737L14.441 44.1441L12.0222 41.9277L15.3649 41.4711L16.8599 38.6238Z" fill="#FFCE00"/>
<path d="M45.9042 12.4743L44.4093 15.3217L41.0665 15.7783L43.4854 17.9946L42.9144 21.1242L45.9042 19.6467L48.8941 21.1242L48.3232 17.9946L50.7421 15.7783L47.3993 15.3217L45.9042 12.4743Z" fill="#FDBA12"/>
<path d="M46.1401 38.6238L44.6452 41.4711L41.3024 41.9277L43.7212 44.1441L43.1502 47.2737L46.1401 45.796L49.13 47.2737L48.5589 44.1441L50.9778 41.9277L47.635 41.4711L46.1401 38.6238Z" fill="#FDBA12"/>
<path d="M31.4999 45.1205L32.9948 47.968L36.3376 48.4245L33.9188 50.6409L34.4899 53.7704L31.4999 52.2929L28.51 53.7704L29.0811 50.6409L26.6622 48.4245L30.005 47.968L31.4999 45.1205Z" fill="#FFCE00"/>
<path d="M36.3377 48.4246L32.9949 47.968L31.5 45.1207V52.293L34.4899 53.7705L33.9189 50.6409L36.3377 48.4246Z" fill="#FDBA12"/>
</svg>
